<svg width="1535" height="1063" viewBox="0 0 1535 1063" fill="none" xmlns="http://www.w3.org/2000/svg">
<g filter="url(#filter0_d)">
<rect width="1000" height="300" rx="20" fill="white" fill-opacity="0.9"/>
<rect x="50" y="50" width="200" height="200" rx="20" fill="#7556FF" fill-opacity="0.8"/>
<mask id="path-3-inside-1" fill="white">
<path d="M146.75 139.25H161.75C162.745 139.25 163.698 138.855 164.402 138.152C165.105 137.448 165.5 136.495 165.5 135.5C165.5 134.505 165.105 133.552 164.402 132.848C163.698 132.145 162.745 131.75 161.75 131.75H154.25V128C154.25 127.005 153.855 126.052 153.152 125.348C152.448 124.645 151.495 124.25 150.5 124.25C149.505 124.25 148.552 124.645 147.848 125.348C147.145 126.052 146.75 127.005 146.75 128V131.75C143.766 131.75 140.905 132.935 138.795 135.045C136.685 137.155 135.5 140.016 135.5 143C135.5 145.984 136.685 148.845 138.795 150.955C140.905 153.065 143.766 154.25 146.75 154.25H154.25C155.245 154.25 156.198 154.645 156.902 155.348C157.605 156.052 158 157.005 158 158C158 158.995 157.605 159.948 156.902 160.652C156.198 161.355 155.245 161.75 154.25 161.75H139.25C138.255 161.75 137.302 162.145 136.598 162.848C135.895 163.552 135.5 164.505 135.5 165.5C135.5 166.495 135.895 167.448 136.598 168.152C137.302 168.855 138.255 169.25 139.25 169.25H146.75V173C146.75 173.995 147.145 174.948 147.848 175.652C148.552 176.355 149.505 176.75 150.5 176.75C151.495 176.75 152.448 176.355 153.152 175.652C153.855 174.948 154.25 173.995 154.25 173V169.25C157.234 169.25 160.095 168.065 162.205 165.955C164.315 163.845 165.5 160.984 165.5 158C165.5 155.016 164.315 152.155 162.205 150.045C160.095 147.935 157.234 146.75 154.25 146.75H146.75C145.755 146.75 144.802 146.355 144.098 145.652C143.395 144.948 143 143.995 143 143C143 142.005 143.395 141.052 144.098 140.348C144.802 139.645 145.755 139.25 146.75 139.25ZM176.75 113H124.25C121.266 113 118.405 114.185 116.295 116.295C114.185 118.405 113 121.266 113 124.25V176.75C113 179.734 114.185 182.595 116.295 184.705C118.405 186.815 121.266 188 124.25 188H176.75C179.734 188 182.595 186.815 184.705 184.705C186.815 182.595 188 179.734 188 176.75V124.25C188 121.266 186.815 118.405 184.705 116.295C182.595 114.185 179.734 113 176.75 113ZM180.5 176.75C180.5 177.745 180.105 178.698 179.402 179.402C178.698 180.105 177.745 180.5 176.75 180.5H124.25C123.255 180.5 122.302 180.105 121.598 179.402C120.895 178.698 120.5 177.745 120.5 176.75V124.25C120.5 123.255 120.895 122.302 121.598 121.598C122.302 120.895 123.255 120.5 124.25 120.5H176.75C177.745 120.5 178.698 120.895 179.402 121.598C180.105 122.302 180.5 123.255 180.5 124.25V176.75Z"/>
</mask>
<path d="M146.75 139.25H161.75C162.745 139.25 163.698 138.855 164.402 138.152C165.105 137.448 165.5 136.495 165.5 135.5C165.5 134.505 165.105 133.552 164.402 132.848C163.698 132.145 162.745 131.75 161.75 131.75H154.25V128C154.25 127.005 153.855 126.052 153.152 125.348C152.448 124.645 151.495 124.25 150.5 124.25C149.505 124.25 148.552 124.645 147.848 125.348C147.145 126.052 146.75 127.005 146.75 128V131.75C143.766 131.75 140.905 132.935 138.795 135.045C136.685 137.155 135.5 140.016 135.5 143C135.5 145.984 136.685 148.845 138.795 150.955C140.905 153.065 143.766 154.25 146.75 154.25H154.25C155.245 154.25 156.198 154.645 156.902 155.348C157.605 156.052 158 157.005 158 158C158 158.995 157.605 159.948 156.902 160.652C156.198 161.355 155.245 161.75 154.25 161.75H139.25C138.255 161.75 137.302 162.145 136.598 162.848C135.895 163.552 135.5 164.505 135.5 165.5C135.5 166.495 135.895 167.448 136.598 168.152C137.302 168.855 138.255 169.25 139.25 169.25H146.75V173C146.75 173.995 147.145 174.948 147.848 175.652C148.552 176.355 149.505 176.75 150.5 176.75C151.495 176.75 152.448 176.355 153.152 175.652C153.855 174.948 154.25 173.995 154.25 173V169.25C157.234 169.25 160.095 168.065 162.205 165.955C164.315 163.845 165.5 160.984 165.5 158C165.5 155.016 164.315 152.155 162.205 150.045C160.095 147.935 157.234 146.75 154.25 146.75H146.75C145.755 146.75 144.802 146.355 144.098 145.652C143.395 144.948 143 143.995 143 143C143 142.005 143.395 141.052 144.098 140.348C144.802 139.645 145.755 139.25 146.75 139.25ZM176.75 113H124.25C121.266 113 118.405 114.185 116.295 116.295C114.185 118.405 113 121.266 113 124.25V176.75C113 179.734 114.185 182.595 116.295 184.705C118.405 186.815 121.266 188 124.25 188H176.75C179.734 188 182.595 186.815 184.705 184.705C186.815 182.595 188 179.734 188 176.75V124.25C188 121.266 186.815 118.405 184.705 116.295C182.595 114.185 179.734 113 176.75 113ZM180.5 176.75C180.5 177.745 180.105 178.698 179.402 179.402C178.698 180.105 177.745 180.5 176.75 180.5H124.25C123.255 180.5 122.302 180.105 121.598 179.402C120.895 178.698 120.5 177.745 120.5 176.75V124.25C120.5 123.255 120.895 122.302 121.598 121.598C122.302 120.895 123.255 120.5 124.25 120.5H176.75C177.745 120.5 178.698 120.895 179.402 121.598C180.105 122.302 180.5 123.255 180.5 124.25V176.75Z" fill="white" fill-opacity="0.5"/>
<path d="M154.25 131.75H144.25V141.75H154.25V131.75ZM146.75 131.75V141.75H156.75V131.75H146.75ZM146.75 154.25V164.25V154.25ZM135.5 165.5H145.5H135.5ZM146.75 169.25H156.75V159.25H146.75V169.25ZM154.25 169.25V159.25H144.25V169.25H154.25ZM154.25 146.75V136.75V146.75ZM124.25 113V103V113ZM113 124.25H103H113ZM113 176.75H103H113ZM124.25 188V198V188ZM176.75 188V198V188ZM188 176.75H198H188ZM188 124.25H198H188ZM124.25 120.5V130.5V120.5ZM146.75 149.25H161.75V129.25H146.75V149.25ZM161.75 149.25C165.397 149.25 168.894 147.801 171.473 145.223L157.331 131.081C158.503 129.908 160.092 129.25 161.75 129.25V149.25ZM171.473 145.223C174.051 142.644 175.5 139.147 175.5 135.5H155.5C155.5 133.842 156.158 132.253 157.331 131.081L171.473 145.223ZM175.5 135.5C175.5 131.853 174.051 128.356 171.473 125.777L157.331 139.919C156.158 138.747 155.5 137.158 155.5 135.5H175.5ZM171.473 125.777C168.894 123.199 165.397 121.75 161.75 121.75V141.75C160.092 141.75 158.503 141.092 157.331 139.919L171.473 125.777ZM161.75 121.75H154.25V141.75H161.75V121.75ZM164.25 131.75V128H144.25V131.75H164.25ZM164.25 128C164.25 124.353 162.801 120.856 160.223 118.277L146.081 132.419C144.908 131.247 144.25 129.658 144.25 128H164.25ZM160.223 118.277C157.644 115.699 154.147 114.25 150.5 114.25V134.25C148.842 134.25 147.253 133.592 146.081 132.419L160.223 118.277ZM150.5 114.25C146.853 114.25 143.356 115.699 140.777 118.277L154.919 132.419C153.747 133.592 152.158 134.25 150.5 134.25V114.25ZM140.777 118.277C138.199 120.856 136.75 124.353 136.75 128H156.75C156.75 129.658 156.092 131.247 154.919 132.419L140.777 118.277ZM136.75 128V131.75H156.75V128H136.75ZM146.75 121.75C141.114 121.75 135.709 123.989 131.724 127.974L145.866 142.116C146.101 141.882 146.418 141.75 146.75 141.75V121.75ZM131.724 127.974C127.739 131.959 125.5 137.364 125.5 143H145.5C145.5 142.668 145.632 142.351 145.866 142.116L131.724 127.974ZM125.5 143C125.5 148.636 127.739 154.041 131.724 158.026L145.866 143.884C145.632 143.649 145.5 143.332 145.5 143H125.5ZM131.724 158.026C135.709 162.011 141.114 164.25 146.75 164.25V144.25C146.418 144.25 146.101 144.118 145.866 143.884L131.724 158.026ZM146.75 164.25H154.25V144.25H146.75V164.25ZM154.25 164.25C152.592 164.25 151.003 163.592 149.831 162.419L163.973 148.277C161.394 145.699 157.897 144.25 154.25 144.25V164.25ZM149.831 162.419C148.658 161.247 148 159.658 148 158H168C168 154.353 166.551 150.856 163.973 148.277L149.831 162.419ZM148 158C148 156.342 148.658 154.753 149.831 153.581L163.973 167.723C166.551 165.144 168 161.647 168 158H148ZM149.831 153.581C151.003 152.408 152.592 151.75 154.25 151.75V171.75C157.897 171.75 161.394 170.301 163.973 167.723L149.831 153.581ZM154.25 151.75H139.25V171.75H154.25V151.75ZM139.25 151.75C135.603 151.75 132.106 153.199 129.527 155.777L143.669 169.919C142.497 171.092 140.908 171.75 139.25 171.75V151.75ZM129.527 155.777C126.949 158.356 125.5 161.853 125.5 165.5H145.5C145.5 167.158 144.842 168.747 143.669 169.919L129.527 155.777ZM125.5 165.5C125.5 169.147 126.949 172.644 129.527 175.223L143.669 161.081C144.842 162.253 145.5 163.842 145.5 165.5H125.5ZM129.527 175.223C132.106 177.801 135.603 179.25 139.25 179.25V159.25C140.908 159.25 142.497 159.908 143.669 161.081L129.527 175.223ZM139.25 179.25H146.75V159.25H139.25V179.25ZM136.75 169.25V173H156.75V169.25H136.75ZM136.75 173C136.75 176.647 138.199 180.144 140.777 182.723L154.919 168.581C156.092 169.753 156.75 171.342 156.75 173H136.75ZM140.777 182.723C143.356 185.301 146.853 186.75 150.5 186.75V166.75C152.158 166.75 153.747 167.408 154.919 168.581L140.777 182.723ZM150.5 186.75C154.147 186.75 157.644 185.301 160.223 182.723L146.081 168.581C147.253 167.408 148.842 166.75 150.5 166.75V186.75ZM160.223 182.723C162.801 180.144 164.25 176.647 164.25 173H144.25C144.25 171.342 144.908 169.753 146.081 168.581L160.223 182.723ZM164.25 173V169.25H144.25V173H164.25ZM154.25 179.25C159.886 179.25 165.291 177.011 169.276 173.026L155.134 158.884C154.899 159.118 154.582 159.25 154.25 159.25V179.25ZM169.276 173.026C173.261 169.041 175.5 163.636 175.5 158H155.5C155.5 158.332 155.368 158.649 155.134 158.884L169.276 173.026ZM175.5 158C175.5 152.364 173.261 146.959 169.276 142.974L155.134 157.116C155.368 157.351 155.5 157.668 155.5 158H175.5ZM169.276 142.974C165.291 138.989 159.886 136.75 154.25 136.75V156.75C154.582 156.75 154.899 156.882 155.134 157.116L169.276 142.974ZM154.25 136.75H146.75V156.75H154.25V136.75ZM146.75 136.75C148.408 136.75 149.997 137.408 151.169 138.581L137.027 152.723C139.606 155.301 143.103 156.75 146.75 156.75V136.75ZM151.169 138.581C152.342 139.753 153 141.342 153 143H133C133 146.647 134.449 150.144 137.027 152.723L151.169 138.581ZM153 143C153 144.658 152.342 146.247 151.169 147.419L137.027 133.277C134.449 135.856 133 139.353 133 143H153ZM151.169 147.419C149.997 148.592 148.408 149.25 146.75 149.25V129.25C143.103 129.25 139.606 130.699 137.027 133.277L151.169 147.419ZM176.75 103H124.25V123H176.75V103ZM124.25 103C118.614 103 113.209 105.239 109.224 109.224L123.366 123.366C123.601 123.132 123.918 123 124.25 123V103ZM109.224 109.224C105.239 113.209 103 118.614 103 124.25H123C123 123.918 123.132 123.601 123.366 123.366L109.224 109.224ZM103 124.25V176.75H123V124.25H103ZM103 176.75C103 182.386 105.239 187.791 109.224 191.776L123.366 177.634C123.132 177.399 123 177.082 123 176.75H103ZM109.224 191.776C113.209 195.761 118.614 198 124.25 198V178C123.918 178 123.601 177.868 123.366 177.634L109.224 191.776ZM124.25 198H176.75V178H124.25V198ZM176.75 198C182.386 198 187.791 195.761 191.776 191.776L177.634 177.634C177.399 177.868 177.082 178 176.75 178V198ZM191.776 191.776C195.761 187.791 198 182.386 198 176.75H178C178 177.082 177.868 177.399 177.634 177.634L191.776 191.776ZM198 176.75V124.25H178V176.75H198ZM198 124.25C198 118.614 195.761 113.209 191.776 109.224L177.634 123.366C177.868 123.601 178 123.918 178 124.25H198ZM191.776 109.224C187.791 105.239 182.386 103 176.75 103V123C177.082 123 177.399 123.132 177.634 123.366L191.776 109.224ZM170.5 176.75C170.5 175.092 171.158 173.503 172.331 172.331L186.473 186.473C189.051 183.894 190.5 180.397 190.5 176.75H170.5ZM172.331 172.331C173.503 171.158 175.092 170.5 176.75 170.5V190.5C180.397 190.5 183.894 189.051 186.473 186.473L172.331 172.331ZM176.75 170.5H124.25V190.5H176.75V170.5ZM124.25 170.5C125.908 170.5 127.497 171.158 128.669 172.331L114.527 186.473C117.106 189.051 120.603 190.5 124.25 190.5V170.5ZM128.669 172.331C129.842 173.503 130.5 175.092 130.5 176.75H110.5C110.5 180.397 111.949 183.894 114.527 186.473L128.669 172.331ZM130.5 176.75V124.25H110.5V176.75H130.5ZM130.5 124.25C130.5 125.908 129.842 127.497 128.669 128.669L114.527 114.527C111.949 117.106 110.5 120.603 110.5 124.25H130.5ZM128.669 128.669C127.497 129.842 125.908 130.5 124.25 130.5V110.5C120.603 110.5 117.106 111.949 114.527 114.527L128.669 128.669ZM124.25 130.5H176.75V110.5H124.25V130.5ZM176.75 130.5C175.092 130.5 173.503 129.842 172.331 128.669L186.473 114.527C183.894 111.949 180.397 110.5 176.75 110.5V130.5ZM172.331 128.669C171.158 127.497 170.5 125.908 170.5 124.25H190.5C190.5 120.603 189.051 117.106 186.473 114.527L172.331 128.669ZM170.5 124.25V176.75H190.5V124.25H170.5Z" fill="white" fill-opacity="0.5" mask="url(#path-3-inside-1)"/>
<rect x="281" y="220" width="325" height="30" rx="10" fill="#C4C4C4" fill-opacity="0.5"/>
<rect x="281" y="135" width="400" height="30" rx="10" fill="#C4C4C4" fill-opacity="0.5"/>
<rect x="281" y="60" width="475" height="30" rx="10" fill="#C4C4C4" fill-opacity="0.5"/>
</g>
<g filter="url(#filter1_d)">
<rect x="500" y="728" width="1000" height="300" rx="20" fill="white" fill-opacity="0.9"/>
<rect x="550" y="778" width="200" height="200" rx="20" fill="#7556FF" fill-opacity="0.8"/>
<mask id="path-10-inside-2" fill="white">
<path d="M657.938 874.709H654.195V870.966C654.195 869.973 653.8 869.021 653.098 868.319C652.396 867.617 651.444 867.223 650.452 867.223C649.459 867.223 648.507 867.617 647.805 868.319C647.103 869.021 646.709 869.973 646.709 870.966V874.709H642.966C641.973 874.709 641.021 875.103 640.319 875.805C639.617 876.507 639.223 877.459 639.223 878.452C639.223 879.444 639.617 880.396 640.319 881.098C641.021 881.8 641.973 882.195 642.966 882.195H646.709V885.938C646.709 886.93 647.103 887.882 647.805 888.584C648.507 889.286 649.459 889.681 650.452 889.681C651.444 889.681 652.396 889.286 653.098 888.584C653.8 887.882 654.195 886.93 654.195 885.938V882.195H657.938C658.93 882.195 659.882 881.8 660.584 881.098C661.286 880.396 661.681 879.444 661.681 878.452C661.681 877.459 661.286 876.507 660.584 875.805C659.882 875.103 658.93 874.709 657.938 874.709ZM686.796 875.794L678 867.223V854.646C678 853.653 677.606 852.701 676.904 851.999C676.202 851.298 675.25 850.903 674.257 850.903H661.868L653.109 842.107C652.761 841.756 652.347 841.478 651.891 841.288C651.435 841.098 650.946 841 650.452 841C649.957 841 649.468 841.098 649.012 841.288C648.556 841.478 648.142 841.756 647.794 842.107L639.223 850.903H626.646C625.653 850.903 624.701 851.298 623.999 851.999C623.298 852.701 622.903 853.653 622.903 854.646V867.223L614.107 875.794C613.756 876.142 613.478 876.556 613.288 877.012C613.098 877.468 613 877.957 613 878.452C613 878.946 613.098 879.435 613.288 879.891C613.478 880.347 613.756 880.761 614.107 881.109L622.903 889.868V902.257C622.903 903.25 623.298 904.202 623.999 904.904C624.701 905.606 625.653 906 626.646 906H639.223L647.981 914.796C648.329 915.147 648.743 915.425 649.199 915.615C649.655 915.805 650.145 915.903 650.639 915.903C651.133 915.903 651.622 915.805 652.078 915.615C652.534 915.425 652.948 915.147 653.296 914.796L662.055 906H674.444C675.437 906 676.389 905.606 677.091 904.904C677.793 904.202 678.187 903.25 678.187 902.257V889.868L686.983 881.109C687.322 880.749 687.586 880.325 687.76 879.862C687.934 879.4 688.015 878.907 687.998 878.413C687.98 877.918 687.865 877.432 687.659 876.983C687.453 876.534 687.159 876.129 686.796 875.794ZM671.637 885.676C671.283 886.022 671.002 886.436 670.809 886.892C670.616 887.348 670.516 887.838 670.514 888.333V898.514H660.333C659.838 898.516 659.348 898.616 658.892 898.809C658.436 899.002 658.022 899.283 657.676 899.637L650.452 906.861L643.228 899.637C642.881 899.283 642.468 899.002 642.011 898.809C641.555 898.616 641.065 898.516 640.57 898.514H630.389V888.333C630.387 887.838 630.287 887.348 630.094 886.892C629.901 886.436 629.62 886.022 629.266 885.676L622.042 878.452L629.266 871.228C629.62 870.881 629.901 870.468 630.094 870.011C630.287 869.555 630.387 869.065 630.389 868.57V858.389H640.57C641.065 858.387 641.555 858.287 642.011 858.094C642.468 857.901 642.881 857.62 643.228 857.266L650.452 850.042L657.676 857.266C658.022 857.62 658.436 857.901 658.892 858.094C659.348 858.287 659.838 858.387 660.333 858.389H670.514V868.57C670.516 869.065 670.616 869.555 670.809 870.011C671.002 870.468 671.283 870.881 671.637 871.228L678.861 878.452L671.637 885.676Z"/>
</mask>
<path d="M657.938 874.709H654.195V870.966C654.195 869.973 653.8 869.021 653.098 868.319C652.396 867.617 651.444 867.223 650.452 867.223C649.459 867.223 648.507 867.617 647.805 868.319C647.103 869.021 646.709 869.973 646.709 870.966V874.709H642.966C641.973 874.709 641.021 875.103 640.319 875.805C639.617 876.507 639.223 877.459 639.223 878.452C639.223 879.444 639.617 880.396 640.319 881.098C641.021 881.8 641.973 882.195 642.966 882.195H646.709V885.938C646.709 886.93 647.103 887.882 647.805 888.584C648.507 889.286 649.459 889.681 650.452 889.681C651.444 889.681 652.396 889.286 653.098 888.584C653.8 887.882 654.195 886.93 654.195 885.938V882.195H657.938C658.93 882.195 659.882 881.8 660.584 881.098C661.286 880.396 661.681 879.444 661.681 878.452C661.681 877.459 661.286 876.507 660.584 875.805C659.882 875.103 658.93 874.709 657.938 874.709ZM686.796 875.794L678 867.223V854.646C678 853.653 677.606 852.701 676.904 851.999C676.202 851.298 675.25 850.903 674.257 850.903H661.868L653.109 842.107C652.761 841.756 652.347 841.478 651.891 841.288C651.435 841.098 650.946 841 650.452 841C649.957 841 649.468 841.098 649.012 841.288C648.556 841.478 648.142 841.756 647.794 842.107L639.223 850.903H626.646C625.653 850.903 624.701 851.298 623.999 851.999C623.298 852.701 622.903 853.653 622.903 854.646V867.223L614.107 875.794C613.756 876.142 613.478 876.556 613.288 877.012C613.098 877.468 613 877.957 613 878.452C613 878.946 613.098 879.435 613.288 879.891C613.478 880.347 613.756 880.761 614.107 881.109L622.903 889.868V902.257C622.903 903.25 623.298 904.202 623.999 904.904C624.701 905.606 625.653 906 626.646 906H639.223L647.981 914.796C648.329 915.147 648.743 915.425 649.199 915.615C649.655 915.805 650.145 915.903 650.639 915.903C651.133 915.903 651.622 915.805 652.078 915.615C652.534 915.425 652.948 915.147 653.296 914.796L662.055 906H674.444C675.437 906 676.389 905.606 677.091 904.904C677.793 904.202 678.187 903.25 678.187 902.257V889.868L686.983 881.109C687.322 880.749 687.586 880.325 687.76 879.862C687.934 879.4 688.015 878.907 687.998 878.413C687.98 877.918 687.865 877.432 687.659 876.983C687.453 876.534 687.159 876.129 686.796 875.794ZM671.637 885.676C671.283 886.022 671.002 886.436 670.809 886.892C670.616 887.348 670.516 887.838 670.514 888.333V898.514H660.333C659.838 898.516 659.348 898.616 658.892 898.809C658.436 899.002 658.022 899.283 657.676 899.637L650.452 906.861L643.228 899.637C642.881 899.283 642.468 899.002 642.011 898.809C641.555 898.616 641.065 898.516 640.57 898.514H630.389V888.333C630.387 887.838 630.287 887.348 630.094 886.892C629.901 886.436 629.62 886.022 629.266 885.676L622.042 878.452L629.266 871.228C629.62 870.881 629.901 870.468 630.094 870.011C630.287 869.555 630.387 869.065 630.389 868.57V858.389H640.57C641.065 858.387 641.555 858.287 642.011 858.094C642.468 857.901 642.881 857.62 643.228 857.266L650.452 850.042L657.676 857.266C658.022 857.62 658.436 857.901 658.892 858.094C659.348 858.287 659.838 858.387 660.333 858.389H670.514V868.57C670.516 869.065 670.616 869.555 670.809 870.011C671.002 870.468 671.283 870.881 671.637 871.228L678.861 878.452L671.637 885.676Z" fill="white" fill-opacity="0.5"/>
<path d="M654.195 874.709H644.195V884.709H654.195V874.709ZM646.709 874.709V884.709H656.709V874.709H646.709ZM646.709 882.195H656.709V872.195H646.709V882.195ZM654.195 882.195V872.195H644.195V882.195H654.195ZM686.796 875.794L679.817 882.956L679.914 883.05L680.013 883.142L686.796 875.794ZM678 867.223H668V871.441L671.021 874.385L678 867.223ZM661.868 850.903L654.782 857.959L657.713 860.903H661.868V850.903ZM653.109 842.107L646.009 849.149L646.016 849.156L646.023 849.163L653.109 842.107ZM650.452 841V851V841ZM647.794 842.107L640.694 835.065L640.663 835.096L640.632 835.128L647.794 842.107ZM639.223 850.903V860.903H643.441L646.385 857.882L639.223 850.903ZM622.903 867.223L629.882 874.385L632.903 871.441V867.223H622.903ZM614.107 875.794L607.128 868.632L607.096 868.663L607.065 868.694L614.107 875.794ZM613 878.452H623H613ZM614.107 881.109L621.163 874.023L621.156 874.016L621.149 874.009L614.107 881.109ZM622.903 889.868H632.903V885.713L629.959 882.782L622.903 889.868ZM639.223 906L646.309 898.944L643.377 896H639.223V906ZM647.981 914.796L655.081 907.754L655.074 907.747L655.067 907.74L647.981 914.796ZM653.296 914.796L646.21 907.74L646.203 907.747L646.196 907.754L653.296 914.796ZM662.055 906V896H657.9L654.969 898.944L662.055 906ZM678.187 889.868L671.131 882.782L668.187 885.713V889.868H678.187ZM686.983 881.109L694.039 888.195L694.155 888.08L694.266 887.961L686.983 881.109ZM671.637 885.676L678.637 892.817L678.673 892.782L678.708 892.747L671.637 885.676ZM670.514 888.333L660.514 888.292L660.514 888.312V888.333H670.514ZM670.514 898.514V908.514H680.514V898.514H670.514ZM660.333 898.514V888.514H660.312L660.292 888.514L660.333 898.514ZM657.676 899.637L664.747 906.708L664.782 906.673L664.817 906.637L657.676 899.637ZM650.452 906.861L643.38 913.932L650.452 921.003L657.523 913.932L650.452 906.861ZM643.228 899.637L636.086 906.637L636.121 906.673L636.157 906.708L643.228 899.637ZM640.57 898.514L640.612 888.514L640.591 888.514H640.57V898.514ZM630.389 898.514H620.389V908.514H630.389V898.514ZM630.389 888.333H640.389V888.312L640.389 888.292L630.389 888.333ZM629.266 885.676L622.195 892.747L622.231 892.782L622.266 892.817L629.266 885.676ZM622.042 878.452L614.971 871.38L607.9 878.452L614.971 885.523L622.042 878.452ZM629.266 871.228L622.266 864.086L622.231 864.121L622.195 864.157L629.266 871.228ZM630.389 868.57L640.389 868.612L640.389 868.591V868.57H630.389ZM630.389 858.389V848.389H620.389V858.389H630.389ZM640.57 858.389V868.389H640.591L640.612 868.389L640.57 858.389ZM643.228 857.266L636.157 850.195L636.121 850.231L636.086 850.266L643.228 857.266ZM650.452 850.042L657.523 842.971L650.452 835.9L643.38 842.971L650.452 850.042ZM657.676 857.266L664.817 850.266L664.782 850.231L664.747 850.195L657.676 857.266ZM660.333 858.389L660.292 868.389L660.312 868.389H660.333V858.389ZM670.514 858.389H680.514V848.389H670.514V858.389ZM670.514 868.57H660.514V868.591L660.514 868.612L670.514 868.57ZM671.637 871.228L678.708 864.157L678.673 864.121L678.637 864.086L671.637 871.228ZM678.861 878.452L685.932 885.523L693.003 878.452L685.932 871.38L678.861 878.452ZM657.938 864.709H654.195V884.709H657.938V864.709ZM664.195 874.709V870.966H644.195V874.709H664.195ZM664.195 870.966C664.195 867.321 662.747 863.825 660.169 861.248L646.027 875.39C644.854 874.217 644.195 872.625 644.195 870.966H664.195ZM660.169 861.248C657.592 858.671 654.096 857.223 650.452 857.223V877.223C648.792 877.223 647.201 876.563 646.027 875.39L660.169 861.248ZM650.452 857.223C646.807 857.223 643.311 858.671 640.734 861.248L654.876 875.39C653.703 876.563 652.111 877.223 650.452 877.223V857.223ZM640.734 861.248C638.156 863.825 636.709 867.321 636.709 870.966H656.709C656.709 872.625 656.049 874.217 654.876 875.39L640.734 861.248ZM636.709 870.966V874.709H656.709V870.966H636.709ZM646.709 864.709H642.966V884.709H646.709V864.709ZM642.966 864.709C639.321 864.709 635.825 866.156 633.248 868.734L647.39 882.876C646.217 884.049 644.625 884.709 642.966 884.709V864.709ZM633.248 868.734C630.671 871.311 629.223 874.807 629.223 878.452H649.223C649.223 880.111 648.563 881.703 647.39 882.876L633.248 868.734ZM629.223 878.452C629.223 882.096 630.671 885.592 633.248 888.169L647.39 874.027C648.563 875.201 649.223 876.792 649.223 878.452H629.223ZM633.248 888.169C635.825 890.747 639.321 892.195 642.966 892.195V872.195C644.625 872.195 646.217 872.854 647.39 874.027L633.248 888.169ZM642.966 892.195H646.709V872.195H642.966V892.195ZM636.709 882.195V885.938H656.709V882.195H636.709ZM636.709 885.938C636.709 889.582 638.156 893.078 640.734 895.655L654.876 881.513C656.049 882.687 656.709 884.278 656.709 885.938H636.709ZM640.734 895.655C643.311 898.233 646.807 899.681 650.452 899.681V879.681C652.111 879.681 653.703 880.34 654.876 881.513L640.734 895.655ZM650.452 899.681C654.096 899.681 657.592 898.233 660.169 895.655L646.027 881.513C647.201 880.34 648.792 879.681 650.452 879.681V899.681ZM660.169 895.655C662.747 893.078 664.195 889.582 664.195 885.938H644.195C644.195 884.278 644.854 882.687 646.027 881.513L660.169 895.655ZM664.195 885.938V882.195H644.195V885.938H664.195ZM654.195 892.195H657.938V872.195H654.195V892.195ZM657.938 892.195C661.582 892.195 665.078 890.747 667.655 888.169L653.513 874.027C654.687 872.854 656.278 872.195 657.938 872.195V892.195ZM667.655 888.169C670.233 885.592 671.681 882.096 671.681 878.452H651.681C651.681 876.792 652.34 875.201 653.513 874.027L667.655 888.169ZM671.681 878.452C671.681 874.807 670.233 871.311 667.655 868.734L653.513 882.876C652.34 881.703 651.681 880.111 651.681 878.452H671.681ZM667.655 868.734C665.078 866.156 661.582 864.709 657.938 864.709V884.709C656.278 884.709 654.687 884.049 653.513 882.876L667.655 868.734ZM693.775 868.632L684.979 860.061L671.021 874.385L679.817 882.956L693.775 868.632ZM688 867.223V854.646H668V867.223H688ZM688 854.646C688 851.001 686.552 847.506 683.975 844.928L669.833 859.071C668.659 857.897 668 856.306 668 854.646H688ZM683.975 844.928C681.397 842.351 677.902 840.903 674.257 840.903V860.903C672.597 860.903 671.006 860.244 669.833 859.071L683.975 844.928ZM674.257 840.903H661.868V860.903H674.257V840.903ZM668.954 843.847L660.195 835.051L646.023 849.163L654.782 857.959L668.954 843.847ZM660.209 835.065C658.931 833.777 657.412 832.755 655.737 832.057L648.045 850.519C647.283 850.201 646.591 849.736 646.009 849.149L660.209 835.065ZM655.737 832.057C654.062 831.359 652.266 831 650.452 831V851C649.626 851 648.808 850.836 648.045 850.519L655.737 832.057ZM650.452 831C648.637 831 646.841 831.359 645.166 832.057L652.858 850.519C652.095 850.836 651.278 851 650.452 851V831ZM645.166 832.057C643.492 832.755 641.972 833.777 640.694 835.065L654.894 849.149C654.312 849.736 653.62 850.201 652.858 850.519L645.166 832.057ZM640.632 835.128L632.061 843.924L646.385 857.882L654.956 849.086L640.632 835.128ZM639.223 840.903H626.646V860.903H639.223V840.903ZM626.646 840.903C623.001 840.903 619.506 842.351 616.928 844.928L631.071 859.071C629.897 860.244 628.306 860.903 626.646 860.903V840.903ZM616.928 844.928C614.351 847.506 612.903 851.001 612.903 854.646H632.903C632.903 856.306 632.244 857.897 631.071 859.071L616.928 844.928ZM612.903 854.646V867.223H632.903V854.646H612.903ZM615.924 860.061L607.128 868.632L621.086 882.956L629.882 874.385L615.924 860.061ZM607.065 868.694C605.777 869.972 604.755 871.492 604.057 873.166L622.519 880.858C622.201 881.62 621.736 882.312 621.149 882.894L607.065 868.694ZM604.057 873.166C603.359 874.841 603 876.637 603 878.452H623C623 879.278 622.836 880.095 622.519 880.858L604.057 873.166ZM603 878.452C603 880.266 603.359 882.062 604.057 883.737L622.519 876.045C622.836 876.808 623 877.626 623 878.452H603ZM604.057 883.737C604.755 885.412 605.777 886.931 607.065 888.209L621.149 874.009C621.736 874.591 622.201 875.283 622.519 876.045L604.057 883.737ZM607.051 888.195L615.847 896.954L629.959 882.782L621.163 874.023L607.051 888.195ZM612.903 889.868V902.257H632.903V889.868H612.903ZM612.903 902.257C612.903 905.902 614.351 909.397 616.928 911.975L631.071 897.833C632.244 899.006 632.903 900.597 632.903 902.257H612.903ZM616.928 911.975C619.506 914.552 623.001 916 626.646 916V896C628.306 896 629.897 896.659 631.071 897.833L616.928 911.975ZM626.646 916H639.223V896H626.646V916ZM632.136 913.056L640.895 921.852L655.067 907.74L646.309 898.944L632.136 913.056ZM640.881 921.838C642.159 923.126 643.679 924.148 645.353 924.846L653.045 906.384C653.808 906.702 654.5 907.168 655.081 907.754L640.881 921.838ZM645.353 924.846C647.028 925.544 648.825 925.903 650.639 925.903V905.903C651.465 905.903 652.282 906.067 653.045 906.384L645.353 924.846ZM650.639 925.903C652.453 925.903 654.249 925.544 655.924 924.846L648.232 906.384C648.995 906.067 649.813 905.903 650.639 905.903V925.903ZM655.924 924.846C657.599 924.148 659.119 923.126 660.396 921.838L646.196 907.754C646.778 907.168 647.47 906.702 648.232 906.384L655.924 924.846ZM660.382 921.852L669.141 913.056L654.969 898.944L646.21 907.74L660.382 921.852ZM662.055 916H674.444V896H662.055V916ZM674.444 916C678.089 916 681.585 914.552 684.162 911.975L670.02 897.833C671.193 896.659 672.785 896 674.444 896V916ZM684.162 911.975C686.739 909.397 688.187 905.902 688.187 902.257H668.187C668.187 900.597 668.846 899.006 670.02 897.833L684.162 911.975ZM688.187 902.257V889.868H668.187V902.257H688.187ZM685.243 896.954L694.039 888.195L679.927 874.023L671.131 882.782L685.243 896.954ZM694.266 887.961C695.51 886.639 696.48 885.083 697.12 883.384L678.401 876.341C678.692 875.567 679.133 874.859 679.7 874.257L694.266 887.961ZM697.12 883.384C697.759 881.684 698.055 879.875 697.991 878.061L678.004 878.764C677.975 877.938 678.11 877.115 678.401 876.341L697.12 883.384ZM697.991 878.061C697.928 876.246 697.505 874.462 696.747 872.812L678.57 881.154C678.225 880.403 678.033 879.591 678.004 878.764L697.991 878.061ZM696.747 872.812C695.99 871.162 694.913 869.678 693.579 868.446L680.013 883.142C679.405 882.581 678.915 881.905 678.57 881.154L696.747 872.812ZM664.637 878.534C663.338 879.807 662.305 881.325 661.598 883L680.021 890.784C679.698 891.547 679.228 892.238 678.637 892.817L664.637 878.534ZM661.598 883C660.89 884.675 660.522 886.473 660.514 888.292L680.514 888.375C680.51 889.202 680.343 890.021 680.021 890.784L661.598 883ZM660.514 888.333V898.514H680.514V888.333H660.514ZM670.514 888.514H660.333V908.514H670.514V888.514ZM660.292 888.514C658.473 888.522 656.675 888.89 655 889.598L662.784 908.021C662.021 908.343 661.202 908.51 660.375 908.514L660.292 888.514ZM655 889.598C653.325 890.305 651.807 891.338 650.534 892.637L664.817 906.637C664.238 907.228 663.547 907.698 662.784 908.021L655 889.598ZM650.604 892.566L643.38 899.79L657.523 913.932L664.747 906.708L650.604 892.566ZM657.523 899.79L650.299 892.566L636.157 906.708L643.38 913.932L657.523 899.79ZM650.369 892.637C649.096 891.338 647.579 890.305 645.904 889.598L638.119 908.021C637.357 907.698 636.666 907.228 636.086 906.637L650.369 892.637ZM645.904 889.598C644.229 888.89 642.43 888.522 640.612 888.514L640.529 908.514C639.701 908.51 638.882 908.343 638.119 908.021L645.904 889.598ZM640.57 888.514H630.389V908.514H640.57V888.514ZM640.389 898.514V888.333H620.389V898.514H640.389ZM640.389 888.292C640.382 886.473 640.013 884.675 639.306 883L620.883 890.784C620.56 890.021 620.393 889.202 620.389 888.375L640.389 888.292ZM639.306 883C638.598 881.325 637.565 879.807 636.266 878.534L622.266 892.817C621.675 892.238 621.205 891.546 620.883 890.784L639.306 883ZM636.337 878.604L629.113 871.38L614.971 885.523L622.195 892.747L636.337 878.604ZM629.113 885.523L636.337 878.299L622.195 864.157L614.971 871.38L629.113 885.523ZM636.266 878.369C637.565 877.096 638.598 875.578 639.306 873.904L620.883 866.119C621.205 865.357 621.675 864.666 622.266 864.086L636.266 878.369ZM639.306 873.904C640.013 872.229 640.382 870.43 640.389 868.612L620.389 868.529C620.393 867.701 620.56 866.882 620.883 866.119L639.306 873.904ZM640.389 868.57V858.389H620.389V868.57H640.389ZM630.389 868.389H640.57V848.389H630.389V868.389ZM640.612 868.389C642.43 868.382 644.229 868.013 645.904 867.306L638.119 848.883C638.882 848.56 639.701 848.393 640.529 848.389L640.612 868.389ZM645.904 867.306C647.578 866.598 649.096 865.565 650.369 864.266L636.086 850.266C636.666 849.675 637.357 849.205 638.119 848.883L645.904 867.306ZM650.299 864.337L657.523 857.113L643.38 842.971L636.157 850.195L650.299 864.337ZM643.38 857.113L650.604 864.337L664.747 850.195L657.523 842.971L643.38 857.113ZM650.534 864.266C651.807 865.565 653.325 866.598 655 867.306L662.784 848.883C663.546 849.205 664.238 849.675 664.817 850.266L650.534 864.266ZM655 867.306C656.675 868.013 658.473 868.382 660.292 868.389L660.375 848.389C661.202 848.393 662.021 848.56 662.784 848.883L655 867.306ZM660.333 868.389H670.514V848.389H660.333V868.389ZM660.514 858.389V868.57H680.514V858.389H660.514ZM660.514 868.612C660.522 870.43 660.89 872.229 661.598 873.904L680.021 866.119C680.343 866.882 680.51 867.701 680.514 868.529L660.514 868.612ZM661.598 873.904C662.305 875.579 663.338 877.096 664.637 878.369L678.637 864.086C679.228 864.666 679.698 865.357 680.021 866.119L661.598 873.904ZM664.566 878.299L671.79 885.523L685.932 871.38L678.708 864.157L664.566 878.299ZM671.79 871.38L664.566 878.604L678.708 892.747L685.932 885.523L671.79 871.38Z" fill="white" fill-opacity="0.5" mask="url(#path-10-inside-2)"/>
<rect x="781" y="948" width="325" height="30" rx="10" fill="#C4C4C4" fill-opacity="0.5"/>
<rect x="781" y="863" width="400" height="30" rx="10" fill="#C4C4C4" fill-opacity="0.5"/>
<rect x="781" y="788" width="475" height="30" rx="10" fill="#C4C4C4" fill-opacity="0.5"/>
</g>
<g filter="url(#filter2_d)">
<rect x="250" y="364" width="1000" height="300" rx="20" fill="white" fill-opacity="0.9"/>
<rect x="300" y="414" width="200" height="200" rx="20" fill="#7556FF" fill-opacity="0.8"/>
<path d="M438 514.156H423L411.75 549.312L389.25 479L378 514.156H363" stroke="white" stroke-opacity="0.5" stroke-width="10" stroke-linecap="round" stroke-linejoin="round"/>
<rect x="531" y="584" width="325" height="30" rx="10" fill="#C4C4C4" fill-opacity="0.5"/>
<rect x="531" y="499" width="400" height="30" rx="10" fill="#C4C4C4" fill-opacity="0.5"/>
<rect x="531" y="424" width="475" height="30" rx="10" fill="#C4C4C4" fill-opacity="0.5"/>
</g>
<defs>
<filter id="filter0_d" x="0" y="0" width="1035" height="335" filterUnits="userSpaceOnUse" color-interpolation-filters="sRGB">
<feFlood flood-opacity="0" result="BackgroundImageFix"/>
<feColorMatrix in="SourceAlpha" type="matrix" values="0 0 0 0 0 0 0 0 0 0 0 0 0 0 0 0 0 0 127 0"/>
<feOffset dx="25" dy="25"/>
<feGaussianBlur stdDeviation="5"/>
<feColorMatrix type="matrix" values="0 0 0 0 1 0 0 0 0 1 0 0 0 0 1 0 0 0 0.25 0"/>
<feBlend mode="normal" in2="BackgroundImageFix" result="effect1_dropShadow"/>
<feBlend mode="normal" in="SourceGraphic" in2="effect1_dropShadow" result="shape"/>
</filter>
<filter id="filter1_d" x="500" y="728" width="1035" height="335" filterUnits="userSpaceOnUse" color-interpolation-filters="sRGB">
<feFlood flood-opacity="0" result="BackgroundImageFix"/>
<feColorMatrix in="SourceAlpha" type="matrix" values="0 0 0 0 0 0 0 0 0 0 0 0 0 0 0 0 0 0 127 0"/>
<feOffset dx="25" dy="25"/>
<feGaussianBlur stdDeviation="5"/>
<feColorMatrix type="matrix" values="0 0 0 0 1 0 0 0 0 1 0 0 0 0 1 0 0 0 0.25 0"/>
<feBlend mode="normal" in2="BackgroundImageFix" result="effect1_dropShadow"/>
<feBlend mode="normal" in="SourceGraphic" in2="effect1_dropShadow" result="shape"/>
</filter>
<filter id="filter2_d" x="250" y="364" width="1035" height="335" filterUnits="userSpaceOnUse" color-interpolation-filters="sRGB">
<feFlood flood-opacity="0" result="BackgroundImageFix"/>
<feColorMatrix in="SourceAlpha" type="matrix" values="0 0 0 0 0 0 0 0 0 0 0 0 0 0 0 0 0 0 127 0"/>
<feOffset dx="25" dy="25"/>
<feGaussianBlur stdDeviation="5"/>
<feColorMatrix type="matrix" values="0 0 0 0 1 0 0 0 0 1 0 0 0 0 1 0 0 0 0.25 0"/>
<feBlend mode="normal" in2="BackgroundImageFix" result="effect1_dropShadow"/>
<feBlend mode="normal" in="SourceGraphic" in2="effect1_dropShadow" result="shape"/>
</filter>
</defs>
</svg>
