<svg width="80" height="60" viewBox="0 0 80 60" fill="none" xmlns="http://www.w3.org/2000/svg">
<path d="M67.972 3.78842L28.9249 42.8879L12.9289 26.8408L12.9222 26.8341L12.9154 26.8276C12.3058 26.2387 11.5863 25.7758 10.7978 25.465C10.0093 25.1543 9.16737 25.0019 8.32 25.0166C7.47262 25.0312 6.63644 25.2126 5.85918 25.5505C5.08191 25.8883 4.3788 26.3759 3.78999 26.9854C3.20117 27.595 2.73818 28.3145 2.42745 29.103C2.11672 29.8915 1.96433 30.7335 1.97899 31.5808C1.99365 32.4282 2.17507 33.2644 2.51289 34.0417C2.84952 34.8162 3.33488 35.5171 3.94142 36.1046L24.4252 56.5884C24.4259 56.5891 24.4265 56.5897 24.4272 56.5904C25.0159 57.1834 25.716 57.6541 26.4873 57.9754C27.2595 58.2971 28.0877 58.4628 28.9242 58.4628C29.7607 58.4628 30.589 58.2971 31.3611 57.9754C32.1325 57.6541 32.8326 57.1834 33.4213 56.5904C33.4219 56.5897 33.4226 56.5891 33.4232 56.5884L76.9534 13.0582C77.5894 12.4676 78.0974 11.7525 78.4457 10.9573C78.7968 10.1557 78.978 9.29013 78.978 8.41504C78.978 7.53994 78.7968 6.67432 78.4457 5.87275C78.0975 5.07792 77.5899 4.36314 76.9543 3.77265C76.3685 3.18615 75.6732 2.72024 74.9079 2.40139C74.1357 2.07969 73.3075 1.91406 72.471 1.91406C71.6345 1.91406 70.8063 2.07969 70.0341 2.40139C69.2625 2.72285 68.5621 3.19378 67.9734 3.78706C67.9729 3.78751 67.9725 3.78797 67.972 3.78842Z" fill="#7556FF" stroke="#7556FF" stroke-width="2"/>
</svg>
