<svg width="18" height="18" viewBox="0 0 18 18" fill="none" xmlns="http://www.w3.org/2000/svg">
<path d="M10.292 12.5C10.2008 12.3223 10.1348 12.1012 10.0938 11.8369C9.61523 12.3701 8.99316 12.6367 8.22754 12.6367C7.50293 12.6367 6.90137 12.4271 6.42285 12.0078C5.94889 11.5885 5.71191 11.0599 5.71191 10.4219C5.71191 9.63802 6.0013 9.03646 6.58008 8.61719C7.16341 8.19792 8.00423 7.986 9.10254 7.98145H10.0117V7.55762C10.0117 7.21582 9.92285 6.94238 9.74512 6.7373C9.57194 6.53223 9.29622 6.42969 8.91797 6.42969C8.58529 6.42969 8.32324 6.50944 8.13184 6.66895C7.94499 6.82845 7.85156 7.0472 7.85156 7.3252H5.87598C5.87598 6.89681 6.00814 6.50033 6.27246 6.13574C6.53678 5.77116 6.91048 5.48633 7.39355 5.28125C7.87663 5.07161 8.41895 4.9668 9.02051 4.9668C9.93197 4.9668 10.6543 5.19694 11.1875 5.65723C11.7253 6.11296 11.9941 6.75553 11.9941 7.58496V10.791C11.9987 11.4928 12.0967 12.0238 12.2881 12.3838V12.5H10.292ZM8.6582 11.126C8.94987 11.126 9.21875 11.0622 9.46484 10.9346C9.71094 10.8024 9.89323 10.627 10.0117 10.4082V9.13672H9.27344C8.28451 9.13672 7.75814 9.47852 7.69434 10.1621L7.6875 10.2783C7.6875 10.5244 7.77409 10.7272 7.94727 10.8867C8.12044 11.0462 8.35742 11.126 8.6582 11.126Z" fill="url(#paint0_linear)"/>
<circle cx="9" cy="9" r="7.75" stroke="url(#paint1_linear)" stroke-width="1.5"/>
<defs>
<linearGradient id="paint0_linear" x1="9" y1="2.5" x2="9" y2="12.5" gradientUnits="userSpaceOnUse">
<stop stop-color="#FF0000"/>
<stop offset="1" stop-color="#7556FF"/>
</linearGradient>
<linearGradient id="paint1_linear" x1="9" y1="2" x2="9" y2="16" gradientUnits="userSpaceOnUse">
<stop stop-color="#FF0000"/>
<stop offset="1" stop-color="#7556FF"/>
</linearGradient>
</defs>
</svg>
