<svg width="16" height="16" viewBox="0 0 16 16" fill="none" xmlns="http://www.w3.org/2000/svg">
<path d="M9.29199 11.5C9.20085 11.3223 9.13477 11.1012 9.09375 10.8369C8.61523 11.3701 7.99316 11.6367 7.22754 11.6367C6.50293 11.6367 5.90137 11.4271 5.42285 11.0078C4.94889 10.5885 4.71191 10.0599 4.71191 9.42188C4.71191 8.63802 5.0013 8.03646 5.58008 7.61719C6.16341 7.19792 7.00423 6.986 8.10254 6.98145H9.01172V6.55762C9.01172 6.21582 8.92285 5.94238 8.74512 5.7373C8.57194 5.53223 8.29622 5.42969 7.91797 5.42969C7.58529 5.42969 7.32324 5.50944 7.13184 5.66895C6.94499 5.82845 6.85156 6.0472 6.85156 6.3252H4.87598C4.87598 5.89681 5.00814 5.50033 5.27246 5.13574C5.53678 4.77116 5.91048 4.48633 6.39355 4.28125C6.87663 4.07161 7.41895 3.9668 8.02051 3.9668C8.93197 3.9668 9.6543 4.19694 10.1875 4.65723C10.7253 5.11296 10.9941 5.75553 10.9941 6.58496V9.79102C10.9987 10.4928 11.0967 11.0238 11.2881 11.3838V11.5H9.29199ZM7.6582 10.126C7.94987 10.126 8.21875 10.0622 8.46484 9.93457C8.71094 9.80241 8.89323 9.62695 9.01172 9.4082V8.13672H8.27344C7.28451 8.13672 6.75814 8.47852 6.69434 9.16211L6.6875 9.27832C6.6875 9.52441 6.77409 9.72721 6.94727 9.88672C7.12044 10.0462 7.35742 10.126 7.6582 10.126Z" fill="url(#paint0_linear)"/>
<circle cx="8" cy="8" r="7.5" stroke="url(#paint1_linear)"/>
<defs>
<linearGradient id="paint0_linear" x1="8" y1="1.5" x2="8" y2="11.5" gradientUnits="userSpaceOnUse">
<stop stop-color="#FF0000"/>
<stop offset="1" stop-color="#7556FF"/>
</linearGradient>
<linearGradient id="paint1_linear" x1="8" y1="1" x2="8" y2="15" gradientUnits="userSpaceOnUse">
<stop stop-color="#FF0000"/>
<stop offset="1" stop-color="#7556FF"/>
</linearGradient>
</defs>
</svg>
