<svg width="1240" height="1240" viewBox="0 0 1240 1240" fill="none" xmlns="http://www.w3.org/2000/svg">
<path d="M712.285 874C705.775 861.305 701.055 845.517 698.125 826.637C663.945 864.723 619.512 883.766 564.824 883.766C513.066 883.766 470.098 868.792 435.918 838.844C402.064 808.896 385.137 771.135 385.137 725.562C385.137 669.573 405.807 626.604 447.148 596.656C488.815 566.708 548.874 551.572 627.324 551.246H692.266V520.973C692.266 496.559 685.918 477.027 673.223 462.379C660.853 447.73 641.159 440.406 614.141 440.406C590.378 440.406 571.66 446.103 557.988 457.496C544.642 468.889 537.969 484.514 537.969 504.371H396.855C396.855 473.772 406.296 445.452 425.176 419.41C444.056 393.368 470.749 373.023 505.254 358.375C539.759 343.401 578.496 335.914 621.465 335.914C686.569 335.914 738.164 352.353 776.25 385.23C814.661 417.783 833.867 463.681 833.867 522.926V751.93C834.193 802.06 841.191 839.983 854.863 865.699V874H712.285ZM595.586 775.855C616.419 775.855 635.625 771.298 653.203 762.184C670.781 752.743 683.802 740.211 692.266 724.586V633.766H639.531C568.893 633.766 531.296 658.18 526.738 707.008L526.25 715.309C526.25 732.887 532.435 747.372 544.805 758.766C557.174 770.159 574.102 775.855 595.586 775.855Z" fill="url(#paint0_linear)"/>
<circle cx="620" cy="620" r="560" stroke="url(#paint1_linear)" stroke-width="120"/>
<defs>
<linearGradient id="paint0_linear" x1="620" y1="282" x2="620" y2="782" gradientUnits="userSpaceOnUse">
<stop stop-color="#FF0000"/>
<stop offset="1" stop-color="#7556FF"/>
</linearGradient>
<linearGradient id="paint1_linear" x1="620" y1="120" x2="620" y2="1120" gradientUnits="userSpaceOnUse">
<stop stop-color="#FF0000"/>
<stop offset="1" stop-color="#7556FF"/>
</linearGradient>
</defs>
</svg>
