<svg width="48" height="16" viewBox="0 0 48 16" fill="none" xmlns="http://www.w3.org/2000/svg">
<path d="M3.1168 14.74C3.02346 15.0333 2.71013 15.18 2.1768 15.18C1.6568 15.18 1.1368 15 0.616797 14.64C1.03013 13.52 1.85013 11.66 3.0768 9.06C4.3168 6.44667 5.14346 4.5 5.5568 3.22C5.5968 3.06 5.6168 2.92667 5.6168 2.82C5.6168 2.7 5.57013 2.54 5.4768 2.34C5.38346 2.14 5.28346 1.98 5.1768 1.86L5.0368 1.68L5.1168 1.28C6.30346 0.959999 7.71013 0.799999 9.3368 0.799999L10.8768 0.879999C11.0101 0.999999 11.1435 1.31333 11.2768 1.82C11.4101 2.32667 11.4968 3.08667 11.5368 4.1C11.5768 5.11333 11.6035 7.01333 11.6168 9.8C11.6301 11.9467 11.8968 13.02 12.4168 13.02C12.5501 13.02 12.8368 12.9533 13.2768 12.82L13.4768 12.76L13.8968 13.9C13.3501 14.3133 12.7101 14.64 11.9768 14.88C11.2435 15.12 10.5835 15.24 9.9968 15.24C9.14346 15.24 8.5568 14.98 8.2368 14.46C7.93013 13.9267 7.7768 13.2467 7.7768 12.42C7.7768 11.58 7.78346 11 7.7968 10.68C7.54346 10.6267 7.05013 10.6 6.3168 10.6C5.58346 10.6 4.95013 10.6733 4.4168 10.82C3.92346 12.14 3.49013 13.4467 3.1168 14.74ZM7.8768 9C7.94346 7.84 7.9768 6.67333 7.9768 5.5C7.9768 4.32667 7.91013 3.47333 7.7768 2.94C7.64346 2.94 7.55013 2.95333 7.4968 2.98C7.20346 3.87333 6.4168 5.88 5.1368 9H7.8768ZM19.4434 13.88C19.0167 14.2533 18.4567 14.5733 17.7634 14.84C17.07 15.1067 16.4367 15.24 15.8634 15.24C15.3034 15.24 14.8434 15.08 14.4834 14.76C14.1234 14.4267 13.9434 13.9533 13.9434 13.34C13.9434 12.7267 14.2767 11.02 14.9434 8.22C15.6234 5.40667 15.9634 3.32 15.9634 1.96C15.9634 1.66667 15.9234 1.29333 15.8434 0.84C17.0967 0.493333 18.31 0.319999 19.4834 0.319999C19.6034 0.533332 19.6634 0.879999 19.6634 1.36C19.6634 2.26667 19.3234 4.24667 18.6434 7.3C17.9767 10.34 17.6434 12.0933 17.6434 12.56C17.6434 13.0267 17.7234 13.26 17.8834 13.26C18.0167 13.26 18.3034 13.1733 18.7434 13L18.9634 12.9L19.4434 13.88ZM20.0809 13.38C20.0809 12.82 20.2542 11.9 20.6009 10.62C20.9609 9.34 21.1409 8.55333 21.1409 8.26C21.1409 7.96667 20.9009 7.54 20.4209 6.98L20.4609 6.68C21.6742 6.41333 23.0942 6.28 24.7209 6.28C24.8275 6.50667 24.8809 6.86667 24.8809 7.36C24.8809 7.85333 24.6942 8.78667 24.3209 10.16C23.9609 11.5333 23.7809 12.3467 23.7809 12.6C23.7809 12.9467 23.9475 13.12 24.2809 13.12C24.5075 13.12 24.7942 13.0333 25.1409 12.86C25.1809 12.6467 25.3009 12.0867 25.5009 11.18C25.9675 9.16667 26.2009 7.66 26.2009 6.66C26.8142 6.39333 27.8609 6.26 29.3409 6.26H29.8809C29.8809 6.86 29.7009 8.03333 29.3409 9.78C28.9942 11.5267 28.8142 12.5333 28.8009 12.8C28.8009 13.0667 28.8609 13.2 28.9809 13.2L29.9609 12.94L30.3209 13.94C29.9342 14.2467 29.3742 14.54 28.6409 14.82C27.9075 15.1 27.2609 15.24 26.7009 15.24C25.8742 15.24 25.3609 14.9067 25.1609 14.24C24.0542 14.9067 22.9942 15.24 21.9809 15.24C20.7142 15.24 20.0809 14.62 20.0809 13.38ZM36.2207 13.88C35.794 14.2533 35.234 14.5733 34.5407 14.84C33.8474 15.1067 33.214 15.24 32.6407 15.24C32.0807 15.24 31.6207 15.08 31.2607 14.76C30.9007 14.4267 30.7207 13.9533 30.7207 13.34C30.7207 12.7267 31.054 11.02 31.7207 8.22C32.4007 5.40667 32.7407 3.32 32.7407 1.96C32.7407 1.66667 32.7007 1.29333 32.6207 0.84C33.874 0.493333 35.0874 0.319999 36.2607 0.319999C36.3807 0.533332 36.4407 0.879999 36.4407 1.36C36.4407 2.26667 36.1007 4.24667 35.4207 7.3C34.754 10.34 34.4207 12.0933 34.4207 12.56C34.4207 13.0267 34.5007 13.26 34.6607 13.26C34.794 13.26 35.0807 13.1733 35.5207 13L35.7407 12.9L36.2207 13.88ZM46.5182 6.9C46.2382 7.76667 45.9982 8.8 45.7982 10C45.5982 11.1867 45.4982 12.02 45.4982 12.5C45.4982 12.9667 45.5715 13.2 45.7182 13.2L46.7182 12.92L47.0782 13.92C46.6515 14.2533 46.1049 14.56 45.4382 14.84C44.7849 15.1067 44.2049 15.24 43.6982 15.24C42.8315 15.24 42.2849 14.8667 42.0582 14.12C41.0049 14.8667 40.0715 15.24 39.2582 15.24C38.4582 15.24 37.8382 14.9467 37.3982 14.36C36.9582 13.7733 36.7382 12.9333 36.7382 11.84C36.7382 10.3333 37.1249 9.00667 37.8982 7.86C38.6715 6.71333 39.6915 6.14 40.9582 6.14C41.6515 6.14 42.3582 6.33333 43.0782 6.72C43.1849 6.48 43.2715 6.30667 43.3382 6.2C44.2982 6.2 45.3582 6.43333 46.5182 6.9ZM40.4982 11.6C40.4982 12.2667 40.5449 12.6867 40.6382 12.86C40.7315 13.0333 40.9049 13.12 41.1582 13.12C41.4115 13.12 41.6582 13.02 41.8982 12.82C41.9515 11.2733 42.2049 9.65333 42.6582 7.96C42.4582 7.84 42.2249 7.78 41.9582 7.78C41.7049 7.78 41.4715 7.92667 41.2582 8.22C41.0582 8.51333 40.9049 8.88 40.7982 9.32C40.5982 10.16 40.4982 10.92 40.4982 11.6Z" fill="url(#paint0_linear)"/>
<defs>
<linearGradient id="paint0_linear" x1="24" y1="1" x2="24" y2="16" gradientUnits="userSpaceOnUse">
<stop stop-color="#FF0000"/>
<stop offset="1" stop-color="#7556FF"/>
</linearGradient>
</defs>
</svg>
