<svg width="790" height="790" viewBox="0 0 790 790" fill="none" xmlns="http://www.w3.org/2000/svg">
<circle cx="395" cy="395" r="350" stroke="white" stroke-width="90"/>
<path d="M459.6 568C455.042 559.113 451.738 548.062 449.688 534.846C425.762 561.506 394.658 574.836 356.377 574.836C320.146 574.836 290.068 564.354 266.143 543.391C242.445 522.427 230.596 495.995 230.596 464.094C230.596 424.901 245.065 394.823 274.004 373.859C303.171 352.896 345.212 342.3 400.127 342.072H445.586V320.881C445.586 303.791 441.143 290.119 432.256 279.865C423.597 269.611 409.811 264.484 390.898 264.484C374.264 264.484 361.162 268.472 351.592 276.447C342.249 284.423 337.578 295.36 337.578 309.26H238.799C238.799 287.84 245.407 268.016 258.623 249.787C271.839 231.558 290.524 217.316 314.678 207.062C338.831 196.581 365.947 191.34 396.025 191.34C441.598 191.34 477.715 202.847 504.375 225.861C531.263 248.648 544.707 280.777 544.707 322.248V482.551C544.935 517.642 549.834 544.188 559.404 562.189V568H459.6ZM377.91 499.299C392.493 499.299 405.938 496.109 418.242 489.729C430.547 483.12 439.661 474.348 445.586 463.41V399.836H408.672C359.225 399.836 332.907 416.926 329.717 451.105L329.375 456.916C329.375 469.221 333.704 479.361 342.363 487.336C351.022 495.311 362.871 499.299 377.91 499.299Z" fill="white"/>
</svg>
