<svg width="200" height="200" viewBox="0 0 200 200" fill="none" xmlns="http://www.w3.org/2000/svg">
<rect width="200" height="200" rx="20" fill="#FFA500"/>
<path d="M113.542 84.5578L126.712 70.8392M134.237 63L126.712 70.8392L134.237 63ZM98.0766 100.667C100.019 102.664 101.564 105.042 102.621 107.663C103.678 110.284 104.227 113.097 104.236 115.941C104.246 118.784 103.715 121.601 102.674 124.229C101.634 126.858 100.105 129.246 98.175 131.256C96.245 133.267 93.9523 134.86 91.4288 135.943C88.9054 137.027 86.2012 137.58 83.4717 137.57C80.7423 137.561 78.0417 136.989 75.5253 135.888C73.0089 134.787 70.7265 133.178 68.8095 131.154C65.0396 127.088 62.9536 121.643 63.0008 115.99C63.0479 110.338 65.2245 104.931 69.0616 100.934C72.8987 96.9368 78.0893 94.6696 83.5156 94.6205C88.9419 94.5714 94.1696 96.7443 98.0728 100.671L98.0766 100.667ZM98.0766 100.667L113.542 84.5578L98.0766 100.667ZM113.542 84.5578L124.83 96.3165L138 82.598L126.712 70.8392L113.542 84.5578Z" stroke="white" stroke-width="10" stroke-linecap="round" stroke-linejoin="round"/>
</svg>
