<svg width="200" height="200" viewBox="0 0 200 200" fill="none" xmlns="http://www.w3.org/2000/svg">
<rect width="200" height="200" rx="20" fill="#5CB85C"/>
<path d="M137.001 131.92V124.818C136.998 121.671 135.993 118.613 134.142 116.126C132.291 113.638 129.699 111.862 126.773 111.075" stroke="white" stroke-width="10" stroke-linecap="round" stroke-linejoin="round"/>
<path d="M116.545 131.92V124.818C116.545 121.051 115.109 117.438 112.551 114.774C109.994 112.11 106.526 110.614 102.909 110.614H75.6364C72.0198 110.614 68.5513 112.11 65.994 114.774C63.4367 117.438 62 121.051 62 124.818V131.92" stroke="white" stroke-width="10" stroke-linecap="round" stroke-linejoin="round"/>
<path d="M113.136 68.4612C116.069 69.2435 118.669 71.0205 120.526 73.512C122.383 76.0035 123.39 79.0678 123.39 82.2218C123.39 85.3759 122.383 88.4402 120.526 90.9317C118.669 93.4232 116.069 95.2002 113.136 95.9825" stroke="white" stroke-width="10" stroke-linecap="round" stroke-linejoin="round"/>
<path d="M89.2721 96.4091C96.8033 96.4091 102.908 90.0495 102.908 82.2045C102.908 74.3596 96.8033 68 89.2721 68C81.741 68 75.6357 74.3596 75.6357 82.2045C75.6357 90.0495 81.741 96.4091 89.2721 96.4091Z" stroke="white" stroke-width="10" stroke-linecap="round" stroke-linejoin="round"/>
</svg>
